<svg fill="#000000" xmlns="http://www.w3.org/2000/svg" viewBox="0 0 26 26" width="26px" height="26px"><path d="M 6 7 C 2.675781 7 0 9.675781 0 13 C 0 16.324219 2.675781 19 6 19 C 8.417969 19 10.375 17.5625 11.71875 16.21875 C 12.246094 15.691406 12.660156 15.171875 13 14.71875 C 13.339844 15.171875 13.753906 15.691406 14.28125 16.21875 C 15.625 17.5625 17.582031 19 20 19 C 23.324219 19 26 16.324219 26 13 C 26 9.675781 23.324219 7 20 7 C 17.582031 7 15.625 8.4375 14.28125 9.78125 C 13.761719 10.300781 13.339844 10.800781 13 11.25 C 12.664063 10.804688 12.261719 10.296875 11.75 9.78125 C 10.414063 8.433594 8.457031 7 6 7 Z M 6 9 C 7.644531 9 9.171875 10.066406 10.3125 11.21875 C 11.207031 12.125 11.53125 12.65625 11.75 13 C 11.523438 13.351563 11.183594 13.878906 10.28125 14.78125 C 9.125 15.9375 7.582031 17 6 17 C 3.722656 17 2 15.277344 2 13 C 2 10.722656 3.722656 9 6 9 Z M 20 9 C 22.277344 9 24 10.722656 24 13 C 24 15.277344 22.277344 17 20 17 C 18.417969 17 16.875 15.9375 15.71875 14.78125 C 14.816406 13.878906 14.476563 13.351563 14.25 13 C 14.476563 12.648438 14.816406 12.121094 15.71875 11.21875 C 16.875 10.0625 18.417969 9 20 9 Z M 19.3125 11 L 19.3125 12.3125 L 18 12.3125 L 18 13.6875 L 19.3125 13.6875 L 19.3125 15 L 20.6875 15 L 20.6875 13.6875 L 22 13.6875 L 22 12.3125 L 20.6875 12.3125 L 20.6875 11 Z M 4 12.3125 L 4 13.59375 L 8 13.59375 L 8 12.3125 Z"/></svg>