<svg height="512" viewBox="0 0 64 64" width="512" xmlns="http://www.w3.org/2000/svg"><g id="Bridge-component-diode-electronic"><path d="m59 11v28h-54v-36h44z" fill="#3e3d42"/><g fill="#57565c"><path d="m49 57h4v4h-4z"/><path d="m37 57h4v4h-4z"/><path d="m23 57h4v4h-4z"/><path d="m11 57h4v4h-4z"/><path d="m11 39h4v5h-4z"/><path d="m23 39h4v5h-4z"/><path d="m37 39h4v5h-4z"/><path d="m49 39h4v5h-4z"/></g><path d="m49 44h4v13h-4z" fill="#787680"/><path d="m37 44h4v13h-4z" fill="#787680"/><path d="m23 44h4v13h-4z" fill="#787680"/><path d="m11 44h4v13h-4z" fill="#787680"/><circle cx="12" cy="9" fill="#2d2d30" r="2"/><path d="m12 8a2 2 0 0 1 1.929 1.5 1.966 1.966 0 0 0 .071-.5 2 2 0 0 0 -4 0 1.966 1.966 0 0 0 .071.5 2 2 0 0 1 1.929-1.5z"/><path d="m48 30v2h2v2h2v-2h2v-2h-2v-2h-2v2z" fill="#d8d7da"/><path d="m10 30h6v2h-6z" fill="#d8d7da"/><path d="m26.332 29.36a2.728 2.728 0 0 0 -2.026.918c-.3.287-.388.362-.642.362s-.325-.059-.639-.361a2.722 2.722 0 0 0 -2.025-.919v2c.242 0 .325.059.639.361a2.693 2.693 0 0 0 4.051 0c.3-.287.388-.362.642-.362s.343.075.642.362a2.728 2.728 0 0 0 2.026.919v-2c-.254 0-.343-.075-.642-.362a2.728 2.728 0 0 0 -2.026-.918z" fill="#d8d7da"/><path d="m40.332 29.36a2.728 2.728 0 0 0 -2.026.918c-.3.287-.388.362-.642.362s-.325-.059-.639-.361a2.722 2.722 0 0 0 -2.025-.919v2c.242 0 .325.059.639.361a2.693 2.693 0 0 0 4.051 0c.3-.287.388-.362.642-.362s.343.075.642.362a2.728 2.728 0 0 0 2.026.919v-2c-.254 0-.343-.075-.642-.362a2.728 2.728 0 0 0 -2.026-.918z" fill="#d8d7da"/><path d="m11 39h4v1h-4z" fill="#2d2d30"/><path d="m23 39h4v1h-4z" fill="#2d2d30"/><path d="m37 39h4v1h-4z" fill="#2d2d30"/><path d="m49 39h4v1h-4z" fill="#2d2d30"/></g></svg>